<?xml version="1.0" encoding="UTF-8" standalone="no"?>
<!DOCTYPE svg PUBLIC "-//W3C//DTD SVG 1.1//EN" "http://www.w3.org/Graphics/SVG/1.1/DTD/svg11.dtd">
<svg width="100%" height="100%" viewBox="0 0 512 512" version="1.1" xmlns="http://www.w3.org/2000/svg" xmlns:xlink="http://www.w3.org/1999/xlink" xml:space="preserve" xmlns:serif="http://www.serif.com/" style="fill-rule:evenodd;clip-rule:evenodd;stroke-linejoin:round;stroke-miterlimit:2;">
    <rect id="ICON" x="0" y="0" width="512" height="512" style="fill:none;"/>
    <g id="ICON1" serif:id="ICON">
        <g transform="matrix(1,0,0,1,-114.677207,-37.776021)">
            <g transform="matrix(1,0,0,1,114.677207,37.776021)">
                <rect x="0" y="0" width="512" height="512" style="fill:rgb(42,61,69);"/>
            </g>
            <g transform="matrix(0.778386,-0.041857,0.041857,0.778386,-61.895628,-60.708904)">
                <path d="M671,669.92C650.73,667.92 635.29,662.48 603.5,646.12C571.19,629.49 553.93,624.03 533.69,624.01C520.72,623.99 496.48,630.25 475.5,639.01C445.24,651.65 416.64,659.37 395.76,660.52C347.24,663.2 295.84,634.39 275.06,592.88C270.76,584.28 270.27,582.13 272.2,580.2C274.41,577.99 276.45,578.96 285.5,586.54C297.84,596.88 309.65,604.69 322.05,610.72C343.79,621.3 363.51,626 386.12,626C407.15,625.99 421.23,622.69 450.99,610.8C505.21,589.13 530.23,584.59 560.69,590.9C579.18,594.73 587.85,598.38 628,619.21C646.4,628.75 656.65,632.98 668.5,635.92C696.07,642.74 717.8,640.42 752.3,626.95C757.47,624.93 758.27,624.85 759.61,626.18C761.98,628.55 760.34,632.52 754.31,639.04C734.72,660.19 700.62,672.84 671,669.92ZM685,569.37C670.64,567.52 653.15,561 624.45,546.8C593.55,531.51 576.81,526.78 553.5,526.77C535.93,526.76 523.27,529.26 496.5,538.03C463.52,548.85 447.63,552.04 427.22,551.96C401.99,551.85 380.32,546.73 357.5,535.49C321.39,517.69 295.61,492.53 280.07,459.91C269.57,437.88 267.63,423.86 272.9,408.15C276,398.89 284.8,380.69 290.13,372.5C297.76,360.79 313.64,343.05 325,333.58C350.02,312.7 371.04,301.84 406.5,291.45C420.17,287.44 424.54,286.62 436.5,285.77C469.44,283.42 484.23,284.55 506.88,291.16C529.66,297.8 544.98,304.96 564.5,318.11C574.62,324.92 585.68,333.61 621,362.51C644.78,381.97 649.61,385.27 665.76,393.09C685.71,402.74 695.69,405.38 712,405.29C734.98,405.17 752.47,398.18 776.46,379.52C782.49,374.84 788.17,371 789.09,371C792.36,371 793.35,373.57 792.05,378.73C785.74,403.76 755.98,430.2 725.5,437.84C702.9,443.5 683.34,443.13 660.93,436.61C635.17,429.11 614.83,416.59 568.93,379.97C516.59,338.21 483.82,323 446.2,323C396.24,323.01 345.52,354.57 328.05,396.53C321.1,413.23 320.49,425.72 325.84,441.69C336.4,473.2 365.41,499.17 402,509.87C417.82,514.49 424.54,515.34 440.42,514.7C456.65,514.06 462.87,512.71 489.99,503.92C516.68,495.27 528.55,493 550.5,492.33C567.24,491.83 569.4,491.97 581.38,494.43C599.12,498.06 609.24,502.01 640.5,517.51C669.46,531.87 680.04,535.91 696.22,538.81C717.16,542.57 736.34,540.3 758.39,531.48C764.81,528.91 770.72,527.06 771.53,527.37C775.08,528.74 771.87,536.19 764.32,544.1C754.14,554.78 739.86,562.77 723.15,567.13C715.59,569.11 693.18,570.42 685,569.37ZM446.57,461.35C435.85,458.06 424.09,447.7 419.18,437.22C416.76,432.06 416.5,430.38 416.5,420C416.5,409 416.65,408.2 419.83,401.7C433.18,374.39 467.49,367.48 489.15,387.74C500.78,398.61 505.51,414.93 501.51,430.31C496.24,450.51 480.12,463.1 459.73,462.93C455.2,462.89 449.28,462.18 446.57,461.35Z" style="fill:white;fill-rule:nonzero;stroke:url(#_Linear1);stroke-width:1.28px;"/>
            </g>
        </g>
    </g>
    <defs>
        <linearGradient id="_Linear1" x1="0" y1="0" x2="1" y2="0" gradientUnits="userSpaceOnUse" gradientTransform="matrix(86.345191,84.996047,-84.996047,86.345191,299.509881,447.915679)"><stop offset="0" style="stop-color:black;stop-opacity:0"/><stop offset="1" style="stop-color:black;stop-opacity:0"/></linearGradient>
    </defs>
</svg>
